# xmcd
#
# Track frame offsets:
#	150
#	14100
#	32867
#	44845
#	56477
#	69787
#
# Disc length: 1167 seconds
#
# Revision: 3
# Processed by: cddbd v1.4PL0 Copyright (c) Steve Scherf et al.
# Submitted via: audiograbber 1.82.02
#
DISCID=52048d06
DTITLE=Garth Brooks - New Songs from The Limited Series (Box Set) (Promo CD)
DYEAR=1998
DGENRE=Country
TTITLE0=Garth Brooks - Uptown Down-Home Good Ol' Boy
TTITLE1=Garth Brooks - This Ain't Tennessee
TTITLE2=Garth Brooks - Which One Of Them
TTITLE3=Garth Brooks - Something With A Ring To It
TTITLE4=Garth Brooks - Anonymous
TTITLE5=Garth Brooks - To Make You Feel My Love
EXTD=
EXTT0=
EXTT1=
EXTT2=
EXTT3=
EXTT4=
EXTT5=
PLAYORDER=
